<svg width="350" height="350" viewBox="0 0 350 350" fill="none" xmlns="http://www.w3.org/2000/svg">
<g clip-path="url(#clip0_1180_3837)">
<rect width="350" height="350" rx="77.5294" fill="url(#paint0_linear_1180_3837)"/>
<rect width="350" height="350" fill="url(#paint1_linear_1180_3837)"/>
<g filter="url(#filter0_d_1180_3837)">
<path d="M75.7988 283.12V71.2988C227.309 71.2988 287.966 92.4809 287.966 177.474C287.966 265.512 237.772 283.12 75.7988 283.12Z" fill="url(#paint2_linear_1180_3837)" shape-rendering="crispEdges"/>
</g>
<mask id="mask0_1180_3837" style="mask-type:alpha" maskUnits="userSpaceOnUse" x="75" y="71" width="213" height="213">
<path d="M75.7988 283.118V71.2969C227.309 71.2969 287.966 92.479 287.966 177.472C287.966 265.511 237.772 283.118 75.7988 283.118Z" fill="white"/>
</mask>
<g mask="url(#mask0_1180_3837)">
<path d="M261.783 216.49C268.35 228.278 264.643 229.467 274.469 237.677C274.469 237.677 269.104 244.7 262.874 250.238C256.644 255.776 249.278 260.275 249.278 260.275L247.048 256.699C242.731 252.534 240.813 251.049 238.224 249.762L224.193 243.803C216.58 239.71 215.948 240.519 209.624 237.677C205.352 236.045 200.252 236.367 195.975 235.54C190.058 235.052 187.225 235.146 182.707 235.708C181.208 234.533 181.566 232.915 182.34 231.353C184.666 227.93 186.982 226.693 194.348 225.135C198.663 225.061 201.047 225.334 205.263 226.135C207.569 226.481 208.633 226.111 210.379 225.079C211.235 223.034 211.3 222.389 211.323 221.35C210.583 217.421 209.745 215.699 207.616 213.358L178.805 188.43C176.935 186.644 176.375 185.594 175.744 183.688C175.113 181.782 175.468 180.632 177.553 179.443C178.805 178.73 180.43 179.619 182.248 180.632L209.624 200.2C211.801 201.083 212.413 200.86 212.15 198.929C212.15 198.929 190.362 169.302 189.302 167.282C188.242 165.261 188.295 163.772 189.479 162.339C191.598 160.781 193.468 161.591 195.876 163.95L221.632 193.982C223.664 195.157 224.176 194.76 224.193 192.573L212.115 164.24C210.149 160.683 209.999 159.329 210.339 157.324C210.921 155.627 211.558 155.165 212.555 154.581C214.363 153.958 215.111 154.083 216.322 155.165C217.853 157.169 218.827 158.58 220.67 161.791C225.617 172.161 228.35 177.723 233.056 186.587C234.467 188.452 235.281 188.575 236.788 186.357C238.051 174.726 237.247 171.31 236.44 163.932C236.44 160.905 237.656 159.518 239.32 159.518C241.52 159.518 242.216 160.976 243.212 163.883C244.959 173.525 245.484 177.332 246.366 183.932C247.266 187.511 247.85 189.349 249.278 192.164C249.278 192.164 262.153 216.717 261.783 216.49Z" fill="#3ACC9E"/>
<path d="M84.6682 160.599C75.4542 150.741 75.6543 150.889 75.6543 150.889L75.6543 107.293L89.2788 118.025C94.4721 121.026 96.6911 122.005 99.5148 122.63L114.568 125.033C122.943 127.171 123.362 126.233 130.184 127.467C134.723 128.022 139.595 126.48 143.945 126.252C149.806 125.3 152.533 124.526 156.782 122.891C158.52 123.67 158.563 125.327 158.188 127.029C156.755 130.912 154.806 132.671 148.032 135.958C143.862 137.07 141.483 137.379 137.198 137.618C134.876 137.838 133.933 138.453 132.487 139.876C132.149 142.067 132.241 142.709 132.469 143.722C134.135 147.357 135.363 148.827 137.994 150.585L171.963 167.835C174.208 169.118 175.005 170.003 176.076 171.7C177.148 173.398 177.08 174.6 175.343 176.256C174.3 177.25 172.508 176.778 170.5 176.234L139.215 163.839C136.89 163.507 136.349 163.871 137.07 165.682C137.07 165.682 165.356 189.185 166.871 190.89C168.387 192.596 168.694 194.054 167.89 195.731C166.209 197.753 164.199 197.418 161.293 195.709L129.06 172.768C126.805 172.117 126.403 172.626 126.914 174.753L145.464 199.34C148.228 202.318 148.701 203.596 148.854 205.624C148.697 207.411 148.191 208.013 147.364 208.82C145.76 209.861 145.004 209.92 143.567 209.161C141.599 207.585 140.313 206.451 137.751 203.778C130.451 194.906 126.458 190.166 119.755 182.698C117.935 181.228 117.116 181.305 116.188 183.821C117.765 195.413 119.368 198.535 121.93 205.501C122.659 208.438 121.813 210.078 120.198 210.479C118.063 211.009 117.036 209.762 115.369 207.181C111.349 198.243 109.923 194.675 107.477 188.482C105.74 185.225 104.731 183.582 102.666 181.195C102.666 181.195 84.2541 160.468 84.6682 160.599Z" fill="#3ACC9E"/>
</g>
<rect width="350" height="350" fill="url(#paint3_linear_1180_3837)"/>
<g filter="url(#filter1_d_1180_3837)">
<path d="M78.2207 283.12V71.2988C219.845 71.2988 276.544 92.4809 276.544 177.474C276.544 265.512 229.625 283.12 78.2207 283.12Z" fill="url(#paint4_linear_1180_3837)" shape-rendering="crispEdges"/>
</g>
<mask id="mask1_1180_3837" style="mask-type:alpha" maskUnits="userSpaceOnUse" x="78" y="71" width="199" height="213">
<path d="M78.2207 283.118V71.2969C219.845 71.2969 276.544 92.479 276.544 177.472C276.544 265.511 229.625 283.118 78.2207 283.118Z" fill="white"/>
</mask>
<g mask="url(#mask1_1180_3837)">
<path d="M252.068 216.49C258.206 228.278 254.742 229.467 263.926 237.677C263.926 237.677 258.911 244.7 253.088 250.238C247.264 255.776 240.379 260.275 240.379 260.275L238.295 256.699C234.26 252.534 232.467 251.049 230.046 249.762L216.931 243.803C209.815 239.71 209.224 240.519 203.313 237.677C199.319 236.045 194.552 236.367 190.555 235.54C185.024 235.052 182.375 235.146 178.152 235.708C176.751 234.533 177.086 232.915 177.809 231.353C179.983 227.93 182.148 226.693 189.033 225.135C193.067 225.061 195.295 225.334 199.236 226.135C201.392 226.481 202.386 226.111 204.019 225.079C204.818 223.034 204.879 222.389 204.901 221.35C204.209 217.421 203.426 215.699 201.435 213.358L174.505 188.43C172.757 186.644 172.233 185.594 171.643 183.688C171.054 181.782 171.385 180.632 173.334 179.443C174.504 178.73 176.024 179.619 177.723 180.632L203.313 200.2C205.348 201.083 205.92 200.86 205.674 198.929C205.674 198.929 185.307 169.302 184.317 167.282C183.326 165.261 183.376 163.772 184.483 162.339C186.463 160.781 188.211 161.591 190.462 163.95L214.537 193.982C216.436 195.157 216.916 194.76 216.931 192.573L205.641 164.24C203.804 160.683 203.663 159.329 203.981 157.324C204.525 155.627 205.121 155.165 206.053 154.581C207.742 153.958 208.441 154.083 209.574 155.165C211.004 157.169 211.915 158.58 213.638 161.791C218.262 172.161 220.816 177.723 225.215 186.587C226.535 188.452 227.296 188.575 228.704 186.357C229.885 174.726 229.134 171.31 228.379 163.932C228.379 160.905 229.515 159.518 231.071 159.518C233.127 159.518 233.778 160.976 234.709 163.883C236.342 173.525 236.833 177.332 237.657 183.932C238.499 187.511 239.044 189.349 240.379 192.164C240.379 192.164 252.414 216.717 252.068 216.49Z" fill="url(#paint5_linear_1180_3837)"/>
<path d="M86.5097 160.599C77.8969 150.741 78.084 150.889 78.084 150.889L78.084 107.293L90.8194 118.025C95.6738 121.026 97.7481 122.005 100.387 122.63L114.459 125.033C122.287 127.171 122.678 126.233 129.055 127.467C133.299 128.022 137.853 126.48 141.919 126.252C147.397 125.3 149.946 124.526 153.918 122.891C155.543 123.671 155.582 125.327 155.232 127.029C153.893 130.912 152.07 132.671 145.739 135.958C141.841 137.07 139.617 137.379 135.612 137.618C133.442 137.838 132.56 138.453 131.208 139.876C130.893 142.067 130.979 142.709 131.191 143.722C132.748 147.357 133.896 148.827 136.355 150.585L168.108 167.835C170.206 169.118 170.951 170.003 171.953 171.7C172.955 173.398 172.892 174.6 171.268 176.256C170.293 177.25 168.618 176.778 166.74 176.234L137.497 163.839C135.324 163.507 134.819 163.871 135.492 165.682C135.492 165.682 161.932 189.185 163.349 190.89C164.765 192.596 165.053 194.054 164.301 195.731C162.73 197.753 160.851 197.418 158.135 195.709L128.005 172.768C125.897 172.117 125.521 172.626 125.999 174.753L143.338 199.34C145.922 202.318 146.364 203.596 146.507 205.624C146.361 207.411 145.887 208.013 145.114 208.82C143.615 209.861 142.908 209.92 141.565 209.161C139.726 207.585 138.523 206.451 136.128 203.778C129.305 194.906 125.573 190.166 119.307 182.698C117.606 181.228 116.84 181.305 115.973 183.821C117.447 195.413 118.945 198.535 121.34 205.501C122.022 208.438 121.231 210.078 119.721 210.479C117.725 211.009 116.766 209.762 115.207 207.181C111.45 198.243 110.116 194.675 107.83 188.482C106.207 185.225 105.263 183.582 103.334 181.195C103.334 181.195 86.1226 160.468 86.5097 160.599Z" fill="url(#paint6_linear_1180_3837)"/>
</g>
<rect width="350" height="350" fill="url(#paint7_linear_1180_3837)"/>
<g filter="url(#filter2_d_1180_3837)">
<path d="M85.1445 283.12V71.2988C226.768 71.2988 283.467 92.4809 283.467 177.474C283.467 265.512 236.548 283.12 85.1445 283.12Z" fill="url(#paint8_linear_1180_3837)" shape-rendering="crispEdges"/>
</g>
<mask id="mask2_1180_3837" style="mask-type:alpha" maskUnits="userSpaceOnUse" x="85" y="71" width="199" height="213">
<path d="M85.1465 283.118V71.2969C226.77 71.2969 283.469 92.479 283.469 177.472C283.469 265.511 236.55 283.118 85.1465 283.118Z" fill="white"/>
</mask>
<g mask="url(#mask2_1180_3837)">
<path d="M258.993 216.49C265.131 228.278 261.666 229.467 270.851 237.677C270.851 237.677 265.836 244.7 260.013 250.238C254.189 255.776 247.304 260.275 247.304 260.275L245.22 256.699C241.184 252.534 239.392 251.049 236.971 249.762L223.856 243.803C216.74 239.71 216.149 240.519 210.238 237.677C206.244 236.045 201.477 236.367 197.479 235.54C191.948 235.052 189.3 235.146 185.077 235.708C183.676 234.533 184.01 232.915 184.734 231.353C186.908 227.93 189.073 226.693 195.958 225.135C199.992 225.061 202.22 225.334 206.161 226.135C208.316 226.481 209.311 226.111 210.944 225.079C211.743 223.034 211.804 222.389 211.826 221.35C211.134 217.421 210.351 215.699 208.36 213.358L181.429 188.43C179.682 186.644 179.158 185.594 178.568 183.688C177.978 181.782 178.31 180.632 180.259 179.443C181.429 178.73 182.949 179.619 184.648 180.632L210.238 200.2C212.272 201.083 212.844 200.86 212.599 198.929C212.599 198.929 192.232 169.302 191.241 167.282C190.251 165.261 190.3 163.772 191.407 162.339C193.388 160.781 195.136 161.591 197.387 163.95L221.462 193.982C223.361 195.157 223.84 194.76 223.856 192.573L212.566 164.24C210.729 160.683 210.588 159.329 210.905 157.324C211.45 155.627 212.045 155.165 212.977 154.581C214.667 153.958 215.366 154.083 216.499 155.165C217.929 157.169 218.84 158.58 220.563 161.791C225.187 172.161 227.741 177.723 232.14 186.587C233.46 188.452 234.22 188.575 235.629 186.357C236.809 174.726 236.058 171.31 235.303 163.932C235.303 160.905 236.44 159.518 237.996 159.518C240.052 159.518 240.703 160.976 241.634 163.883C243.267 173.525 243.758 177.332 244.582 183.932C245.423 187.511 245.969 189.349 247.304 192.164C247.304 192.164 259.339 216.717 258.993 216.49Z" fill="url(#paint9_linear_1180_3837)"/>
<path d="M93.4345 160.599C84.8217 150.741 85.0088 150.889 85.0088 150.889L85.0088 107.293L97.7442 118.025C102.599 121.026 104.673 122.005 107.312 122.63L121.384 125.033C129.212 127.171 129.603 126.233 135.98 127.467C140.224 128.022 144.777 126.48 148.844 126.252C154.322 125.3 156.871 124.526 160.843 122.891C162.468 123.671 162.507 125.327 162.157 127.029C160.818 130.912 158.995 132.671 152.664 135.958C148.766 137.07 146.542 137.379 142.537 137.618C140.367 137.838 139.485 138.453 138.133 139.876C137.817 142.067 137.903 142.709 138.116 143.722C139.673 147.357 140.821 148.827 143.28 150.585L175.033 167.835C177.131 169.118 177.876 170.003 178.878 171.7C179.879 173.398 179.817 174.6 178.193 176.256C177.218 177.25 175.543 176.778 173.665 176.234L144.422 163.839C142.249 163.507 141.743 163.871 142.417 165.682C142.417 165.682 168.857 189.185 170.274 190.89C171.69 192.596 171.977 194.054 171.226 195.731C169.655 197.753 167.776 197.418 165.06 195.709L134.929 172.768C132.821 172.117 132.446 172.626 132.924 174.753L150.263 199.34C152.847 202.318 153.289 203.596 153.432 205.624C153.286 207.411 152.812 208.013 152.039 208.82C150.54 209.861 149.833 209.92 148.49 209.161C146.65 207.585 145.448 206.451 143.053 203.778C136.23 194.906 132.497 190.166 126.232 182.698C124.531 181.228 123.765 181.305 122.898 183.821C124.372 195.413 125.87 198.535 128.265 205.501C128.947 208.438 128.156 210.078 126.646 210.479C124.65 211.009 123.69 209.762 122.132 207.181C118.375 198.243 117.041 194.675 114.755 188.482C113.132 185.225 112.188 183.582 110.258 181.195C110.258 181.195 93.0474 160.468 93.4345 160.599Z" fill="url(#paint10_linear_1180_3837)"/>
</g>
<rect width="350" height="350" fill="url(#paint11_linear_1180_3837)"/>
<g filter="url(#filter3_d_1180_3837)">
<path d="M85.1436 265.814V88.6045C85.1436 79.0468 92.9469 71.2822 102.504 71.4136C231.42 73.1863 283.466 96.0428 283.466 177.474C283.466 262.054 240.161 281.628 102.506 283.035C92.9487 283.133 85.1436 275.372 85.1436 265.814Z" fill="url(#paint12_linear_1180_3837)" shape-rendering="crispEdges"/>
</g>
<path d="M258.988 216.493C265.126 228.28 261.661 229.47 270.846 237.68C270.846 237.68 265.831 244.703 260.008 250.241C254.184 255.779 247.299 260.278 247.299 260.278L245.215 256.702C241.18 252.537 239.387 251.052 236.966 249.765L223.851 243.805C216.735 239.712 216.144 240.522 210.233 237.68C206.239 236.047 201.472 236.37 197.474 235.543C191.944 235.055 189.295 235.149 185.072 235.711C183.671 234.536 184.005 232.918 184.729 231.356C186.903 227.933 189.068 226.696 195.953 225.138C199.987 225.064 202.215 225.337 206.156 226.138C208.312 226.484 209.306 226.114 210.939 225.082C211.738 223.037 211.799 222.391 211.821 221.353C211.129 217.424 210.346 215.701 208.355 213.361L181.424 188.433C179.677 186.647 179.153 185.597 178.563 183.691C177.974 181.785 178.305 180.635 180.254 179.446C181.424 178.733 182.944 179.622 184.643 180.635L210.233 200.203C212.267 201.086 212.84 200.863 212.594 198.932C212.594 198.932 192.227 169.305 191.237 167.285C190.246 165.264 190.296 163.775 191.402 162.342C193.383 160.783 195.131 161.594 197.382 163.953L221.457 193.985C223.356 195.16 223.836 194.763 223.851 192.576L212.561 164.243C210.724 160.686 210.583 159.332 210.901 157.327C211.445 155.63 212.04 155.168 212.973 154.584C214.662 153.961 215.361 154.086 216.494 155.168C217.924 157.172 218.835 158.583 220.558 161.794C225.182 172.164 227.736 177.726 232.135 186.59C233.455 188.455 234.215 188.578 235.624 186.359C236.805 174.729 236.053 171.313 235.298 163.935C235.298 160.908 236.435 159.521 237.991 159.521C240.047 159.521 240.698 160.979 241.629 163.886C243.262 173.528 243.753 177.335 244.577 183.935C245.419 187.514 245.964 189.352 247.299 192.167C247.299 192.167 259.334 216.72 258.988 216.493Z" fill="url(#paint13_linear_1180_3837)"/>
<path d="M93.4296 160.602C84.8169 150.744 85.0039 150.892 85.0039 150.892L85.0039 107.296L97.7393 118.028C102.594 121.029 104.668 122.008 107.307 122.633L121.379 125.036C129.207 127.174 129.598 126.236 135.975 127.47C140.219 128.025 144.773 126.483 148.839 126.255C154.317 125.302 156.866 124.529 160.838 122.894C162.463 123.673 162.502 125.33 162.152 127.032C160.813 130.915 158.99 132.674 152.659 135.961C148.761 137.072 146.537 137.382 142.532 137.621C140.362 137.841 139.48 138.456 138.128 139.879C137.813 142.07 137.899 142.712 138.111 143.725C139.668 147.36 140.816 148.83 143.275 150.588L175.028 167.838C177.126 169.121 177.871 170.006 178.873 171.703C179.875 173.401 179.812 174.603 178.188 176.259C177.213 177.253 175.538 176.781 173.66 176.237L144.417 163.842C142.244 163.51 141.739 163.874 142.412 165.685C142.412 165.685 168.852 189.188 170.269 190.893C171.685 192.599 171.973 194.057 171.221 195.734C169.65 197.756 167.771 197.421 165.055 195.712L134.925 172.771C132.817 172.12 132.441 172.629 132.919 174.756L150.258 199.343C152.842 202.321 153.284 203.599 153.427 205.627C153.281 207.414 152.807 208.016 152.034 208.823C150.535 209.864 149.828 209.923 148.485 209.164C146.645 207.588 145.443 206.454 143.048 203.781C136.225 194.909 132.492 190.169 126.227 182.701C124.526 181.231 123.76 181.308 122.893 183.824C124.367 195.416 125.865 198.538 128.26 205.504C128.942 208.441 128.151 210.081 126.641 210.482C124.645 211.012 123.686 209.765 122.127 207.184C118.37 198.246 117.036 194.678 114.75 188.485C113.127 185.228 112.183 183.585 110.253 181.198C110.253 181.198 93.0426 160.471 93.4296 160.602Z" fill="url(#paint14_linear_1180_3837)"/>
</g>
<defs>
<filter id="filter0_d_1180_3837" x="66.7999" y="62.2999" width="232.934" height="232.588" filterUnits="userSpaceOnUse" color-interpolation-filters="sRGB">
<feFlood flood-opacity="0" result="BackgroundImageFix"/>
<feColorMatrix in="SourceAlpha" type="matrix" values="0 0 0 0 0 0 0 0 0 0 0 0 0 0 0 0 0 0 127 0" result="hardAlpha"/>
<feOffset dx="1.38445" dy="1.38445"/>
<feGaussianBlur stdDeviation="5.1917"/>
<feComposite in2="hardAlpha" operator="out"/>
<feColorMatrix type="matrix" values="0 0 0 0 0 0 0 0 0 0 0 0 0 0 0 0 0 0 0.25 0"/>
<feBlend mode="normal" in2="BackgroundImageFix" result="effect1_dropShadow_1180_3837"/>
<feBlend mode="normal" in="SourceGraphic" in2="effect1_dropShadow_1180_3837" result="shape"/>
</filter>
<filter id="filter1_d_1180_3837" x="74.7596" y="67.8377" width="219.09" height="232.588" filterUnits="userSpaceOnUse" color-interpolation-filters="sRGB">
<feFlood flood-opacity="0" result="BackgroundImageFix"/>
<feColorMatrix in="SourceAlpha" type="matrix" values="0 0 0 0 0 0 0 0 0 0 0 0 0 0 0 0 0 0 127 0" result="hardAlpha"/>
<feOffset dx="6.92227" dy="6.92227"/>
<feGaussianBlur stdDeviation="5.1917"/>
<feComposite in2="hardAlpha" operator="out"/>
<feColorMatrix type="matrix" values="0 0 0 0 0 0 0 0 0 0 0 0 0 0 0 0 0 0 0.25 0"/>
<feBlend mode="normal" in2="BackgroundImageFix" result="effect1_dropShadow_1180_3837"/>
<feBlend mode="normal" in="SourceGraphic" in2="effect1_dropShadow_1180_3837" result="shape"/>
</filter>
<filter id="filter2_d_1180_3837" x="81.6834" y="67.8377" width="219.09" height="232.588" filterUnits="userSpaceOnUse" color-interpolation-filters="sRGB">
<feFlood flood-opacity="0" result="BackgroundImageFix"/>
<feColorMatrix in="SourceAlpha" type="matrix" values="0 0 0 0 0 0 0 0 0 0 0 0 0 0 0 0 0 0 127 0" result="hardAlpha"/>
<feOffset dx="6.92227" dy="6.92227"/>
<feGaussianBlur stdDeviation="5.1917"/>
<feComposite in2="hardAlpha" operator="out"/>
<feColorMatrix type="matrix" values="0 0 0 0 0 0 0 0 0 0 0 0 0 0 0 0 0 0 0.25 0"/>
<feBlend mode="normal" in2="BackgroundImageFix" result="effect1_dropShadow_1180_3837"/>
<feBlend mode="normal" in="SourceGraphic" in2="effect1_dropShadow_1180_3837" result="shape"/>
</filter>
<filter id="filter3_d_1180_3837" x="81.6824" y="67.951" width="219.09" height="232.391" filterUnits="userSpaceOnUse" color-interpolation-filters="sRGB">
<feFlood flood-opacity="0" result="BackgroundImageFix"/>
<feColorMatrix in="SourceAlpha" type="matrix" values="0 0 0 0 0 0 0 0 0 0 0 0 0 0 0 0 0 0 127 0" result="hardAlpha"/>
<feOffset dx="6.92227" dy="6.92227"/>
<feGaussianBlur stdDeviation="5.1917"/>
<feComposite in2="hardAlpha" operator="out"/>
<feColorMatrix type="matrix" values="0 0 0 0 0 0 0 0 0 0 0 0 0 0 0 0 0 0 0.25 0"/>
<feBlend mode="normal" in2="BackgroundImageFix" result="effect1_dropShadow_1180_3837"/>
<feBlend mode="normal" in="SourceGraphic" in2="effect1_dropShadow_1180_3837" result="shape"/>
</filter>
<linearGradient id="paint0_linear_1180_3837" x1="175" y1="0" x2="175" y2="350" gradientUnits="userSpaceOnUse">
<stop stop-color="#EF786F"/>
<stop offset="1" stop-color="#D8595E"/>
</linearGradient>
<linearGradient id="paint1_linear_1180_3837" x1="175" y1="0" x2="175" y2="350" gradientUnits="userSpaceOnUse">
<stop stop-color="#45D6A2"/>
<stop offset="1" stop-color="#079E8D"/>
</linearGradient>
<linearGradient id="paint2_linear_1180_3837" x1="181.883" y1="71.2988" x2="181.883" y2="283.12" gradientUnits="userSpaceOnUse">
<stop stop-color="white"/>
<stop offset="1" stop-color="white" stop-opacity="0.85"/>
</linearGradient>
<linearGradient id="paint3_linear_1180_3837" x1="0" y1="0" x2="267.969" y2="361.621" gradientUnits="userSpaceOnUse">
<stop stop-color="#4EECB3"/>
<stop offset="1" stop-color="#057B6E"/>
</linearGradient>
<linearGradient id="paint4_linear_1180_3837" x1="177.382" y1="71.2988" x2="177.382" y2="283.12" gradientUnits="userSpaceOnUse">
<stop stop-color="white"/>
<stop offset="1" stop-color="white" stop-opacity="0.85"/>
</linearGradient>
<linearGradient id="paint5_linear_1180_3837" x1="256.123" y1="248.507" x2="192.771" y2="157.348" gradientUnits="userSpaceOnUse">
<stop stop-color="#127966"/>
<stop offset="1" stop-color="#37C89D"/>
</linearGradient>
<linearGradient id="paint6_linear_1180_3837" x1="64.7211" y1="119.58" x2="169.719" y2="197.174" gradientUnits="userSpaceOnUse">
<stop stop-color="#37C99E"/>
<stop offset="1" stop-color="#27A988"/>
</linearGradient>
<linearGradient id="paint7_linear_1180_3837" x1="0" y1="0" x2="267.969" y2="361.621" gradientUnits="userSpaceOnUse">
<stop stop-color="#4EECB3"/>
<stop offset="1" stop-color="#057B6E"/>
</linearGradient>
<linearGradient id="paint8_linear_1180_3837" x1="184.306" y1="71.2988" x2="184.306" y2="283.12" gradientUnits="userSpaceOnUse">
<stop stop-color="white"/>
<stop offset="1" stop-color="white" stop-opacity="0.85"/>
</linearGradient>
<linearGradient id="paint9_linear_1180_3837" x1="263.048" y1="248.507" x2="199.696" y2="157.348" gradientUnits="userSpaceOnUse">
<stop stop-color="#127966"/>
<stop offset="1" stop-color="#37C89D"/>
</linearGradient>
<linearGradient id="paint10_linear_1180_3837" x1="71.6459" y1="119.58" x2="176.643" y2="197.174" gradientUnits="userSpaceOnUse">
<stop stop-color="#37C99E"/>
<stop offset="1" stop-color="#27A988"/>
</linearGradient>
<linearGradient id="paint11_linear_1180_3837" x1="0" y1="0" x2="267.969" y2="361.621" gradientUnits="userSpaceOnUse">
<stop stop-color="#4EECB3"/>
<stop offset="1" stop-color="#057B6E"/>
</linearGradient>
<linearGradient id="paint12_linear_1180_3837" x1="184.305" y1="71.2988" x2="184.305" y2="283.12" gradientUnits="userSpaceOnUse">
<stop stop-color="white"/>
<stop offset="1" stop-color="white" stop-opacity="0.85"/>
</linearGradient>
<linearGradient id="paint13_linear_1180_3837" x1="263.043" y1="248.51" x2="199.691" y2="157.351" gradientUnits="userSpaceOnUse">
<stop stop-color="#127966"/>
<stop offset="1" stop-color="#37C89D"/>
</linearGradient>
<linearGradient id="paint14_linear_1180_3837" x1="71.641" y1="119.583" x2="176.639" y2="197.177" gradientUnits="userSpaceOnUse">
<stop stop-color="#37C99E"/>
<stop offset="1" stop-color="#27A988"/>
</linearGradient>
<clipPath id="clip0_1180_3837">
<rect width="350" height="350" rx="77.5294" fill="white"/>
</clipPath>
</defs>
</svg>
